<svg id="visual" viewBox="0 0 960 300" width="960" height="300" xmlns="http://www.w3.org/2000/svg" xmlns:xlink="http://www.w3.org/1999/xlink" version="1.1"><rect x="0" y="0" width="960" height="300" fill="#0f0f10"></rect><defs><linearGradient id="grad1_0" x1="68.8%" y1="0%" x2="100%" y2="100%"><stop offset="-14.000000000000007%" stop-color="#0f0f10" stop-opacity="1"></stop><stop offset="114.00000000000001%" stop-color="#0f0f10" stop-opacity="1"></stop></linearGradient></defs><defs><linearGradient id="grad2_0" x1="0%" y1="0%" x2="31.3%" y2="100%"><stop offset="-14.000000000000007%" stop-color="#0f0f10" stop-opacity="1"></stop><stop offset="114.00000000000001%" stop-color="#0f0f10" stop-opacity="1"></stop></linearGradient></defs><g transform="translate(960, 0)"><path d="M0 255C-37.8 237 -75.6 219.1 -115.5 200.1C-155.4 181 -197.2 161 -220.8 127.5C-244.4 94 -249.7 47 -255 0L0 0Z" fill="#ff0066"></path></g><g transform="translate(0, 300)"><path d="M0 -255C44.6 -248.3 89.1 -241.6 127.5 -220.8C165.9 -200 198 -165.2 218.2 -126C238.5 -86.8 246.7 -43.4 255 0L0 0Z" fill="#ff0066"></path></g></svg>