<svg id="visual" viewBox="0 0 960 300" width="960" height="300" xmlns="http://www.w3.org/2000/svg" xmlns:xlink="http://www.w3.org/1999/xlink" version="1.1"><rect x="0" y="0" width="960" height="300" fill="#3c31dd"></rect><path d="M0 199L22.8 199.3C45.7 199.7 91.3 200.3 137 199.8C182.7 199.3 228.3 197.7 274 194.5C319.7 191.3 365.3 186.7 411.2 187.3C457 188 503 194 548.8 194.5C594.7 195 640.3 190 686 190.3C731.7 190.7 777.3 196.3 823 199.2C868.7 202 914.3 202 937.2 202L960 202L960 301L937.2 301C914.3 301 868.7 301 823 301C777.3 301 731.7 301 686 301C640.3 301 594.7 301 548.8 301C503 301 457 301 411.2 301C365.3 301 319.7 301 274 301C228.3 301 182.7 301 137 301C91.3 301 45.7 301 22.8 301L0 301Z" fill="#9300ff"></path><path d="M0 224L22.8 219.7C45.7 215.3 91.3 206.7 137 206.2C182.7 205.7 228.3 213.3 274 213.3C319.7 213.3 365.3 205.7 411.2 203.7C457 201.7 503 205.3 548.8 211.5C594.7 217.7 640.3 226.3 686 224.2C731.7 222 777.3 209 823 204.8C868.7 200.7 914.3 205.3 937.2 207.7L960 210L960 301L937.2 301C914.3 301 868.7 301 823 301C777.3 301 731.7 301 686 301C640.3 301 594.7 301 548.8 301C503 301 457 301 411.2 301C365.3 301 319.7 301 274 301C228.3 301 182.7 301 137 301C91.3 301 45.7 301 22.8 301L0 301Z" fill="#d500d0"></path><path d="M0 220L22.8 225C45.7 230 91.3 240 137 241.2C182.7 242.3 228.3 234.7 274 232C319.7 229.3 365.3 231.7 411.2 232.7C457 233.7 503 233.3 548.8 231.7C594.7 230 640.3 227 686 225.3C731.7 223.7 777.3 223.3 823 226.2C868.7 229 914.3 235 937.2 238L960 241L960 301L937.2 301C914.3 301 868.7 301 823 301C777.3 301 731.7 301 686 301C640.3 301 594.7 301 548.8 301C503 301 457 301 411.2 301C365.3 301 319.7 301 274 301C228.3 301 182.7 301 137 301C91.3 301 45.7 301 22.8 301L0 301Z" fill="#f100a9"></path><path d="M0 256L22.8 253.3C45.7 250.7 91.3 245.3 137 245.5C182.7 245.7 228.3 251.3 274 254.8C319.7 258.3 365.3 259.7 411.2 257.8C457 256 503 251 548.8 252.2C594.7 253.3 640.3 260.7 686 264.3C731.7 268 777.3 268 823 263.5C868.7 259 914.3 250 937.2 245.5L960 241L960 301L937.2 301C914.3 301 868.7 301 823 301C777.3 301 731.7 301 686 301C640.3 301 594.7 301 548.8 301C503 301 457 301 411.2 301C365.3 301 319.7 301 274 301C228.3 301 182.7 301 137 301C91.3 301 45.7 301 22.8 301L0 301Z" fill="#fd0087"></path><path d="M0 262L22.8 262.8C45.7 263.7 91.3 265.3 137 267.3C182.7 269.3 228.3 271.7 274 274.3C319.7 277 365.3 280 411.2 280.3C457 280.7 503 278.3 548.8 276.3C594.7 274.3 640.3 272.7 686 273.3C731.7 274 777.3 277 823 275.7C868.7 274.3 914.3 268.7 937.2 265.8L960 263L960 301L937.2 301C914.3 301 868.7 301 823 301C777.3 301 731.7 301 686 301C640.3 301 594.7 301 548.8 301C503 301 457 301 411.2 301C365.3 301 319.7 301 274 301C228.3 301 182.7 301 137 301C91.3 301 45.7 301 22.8 301L0 301Z" fill="#ff0066"></path></svg>